# xmcd CD database file
# Copyright (C) 1993-1996 Ti Kan
#
# Track frame offsets:
#	150
#	16900
#	33192
#	52985
#	69787
#	89087
#	102175
#	114430
#	128147
#	144805
#	159207
#	174340
#
# Disc length: 2477 seconds
#
# Revision: 1
# Processed by: cddbd v1.4b41PL1 Copyright (c) Steve Scherf et al.
# Submitted via: CDValet v3.30 - Copyright (c) 1997 Greg Leichner
#
DISCID=8709ab0c
DTITLE=Kenny Rogers - The Best Of Kenny Rogers [CDOne)
DYEAR=1900
DGENRE=
TTITLE0=Lucille
TTITLE1=The Gambler
TTITLE2=Coward Of The County
TTITLE3=You Decorated My Life
TTITLE4=She Believes In Me
TTITLE5=Ruby Don't Take Your Love To Town
TTITLE6=Reuben James
TTITLE7=I Wish I Could Hurt That Way Again
TTITLE8=Love Will Turn You Around
TTITLE9=All I Need Is You (Duet With Dottie West)
TTITLE10=Share Your Love With Me
TTITLE11=Blaze Of Glory
EXTD=
EXTT0=
EXTT1=
EXTT2=
EXTT3=
EXTT4=
EXTT5=
EXTT6=
EXTT7=
EXTT8=
EXTT9=
EXTT10=
EXTT11=
PLAYORDER=
